<mxfile host="65bd71144e">
    <diagram id="7LVZiFLT8HNZIW8juP0X" name="ページ1">
        <mxGraphModel dx="1408" dy="832" grid="1" gridSize="10" guides="1" tooltips="1" connect="1" arrows="1" fold="1" page="1" pageScale="1" pageWidth="850" pageHeight="1100" math="0" shadow="0">
            <root>
                <mxCell id="0"/>
                <mxCell id="1" parent="0"/>
                <mxCell id="2" value="OrderManager" style="swimlane;fontStyle=1;align=center;verticalAlign=top;childLayout=stackLayout;horizontal=1;startSize=26;horizontalStack=0;resizeParent=1;resizeParentMax=0;resizeLast=0;collapsible=1;marginBottom=0;" vertex="1" parent="1">
                    <mxGeometry x="330" y="120" width="160" height="60" as="geometry"/>
                </mxCell>
                <mxCell id="4" value="" style="line;strokeWidth=1;fillColor=none;align=left;verticalAlign=middle;spacingTop=-1;spacingLeft=3;spacingRight=3;rotatable=0;labelPosition=right;points=[];portConstraint=eastwest;" vertex="1" parent="2">
                    <mxGeometry y="26" width="160" height="8" as="geometry"/>
                </mxCell>
                <mxCell id="5" value="order(Order)" style="text;strokeColor=none;fillColor=none;align=left;verticalAlign=top;spacingLeft=4;spacingRight=4;overflow=hidden;rotatable=0;points=[[0,0.5],[1,0.5]];portConstraint=eastwest;" vertex="1" parent="2">
                    <mxGeometry y="34" width="160" height="26" as="geometry"/>
                </mxCell>
                <mxCell id="6" value="ItemDao" style="swimlane;fontStyle=1;align=center;verticalAlign=top;childLayout=stackLayout;horizontal=1;startSize=26;horizontalStack=0;resizeParent=1;resizeParentMax=0;resizeLast=0;collapsible=1;marginBottom=0;" vertex="1" parent="1">
                    <mxGeometry x="90" y="240" width="160" height="90" as="geometry"/>
                </mxCell>
                <mxCell id="8" value="" style="line;strokeWidth=1;fillColor=none;align=left;verticalAlign=middle;spacingTop=-1;spacingLeft=3;spacingRight=3;rotatable=0;labelPosition=right;points=[];portConstraint=eastwest;" vertex="1" parent="6">
                    <mxGeometry y="26" width="160" height="8" as="geometry"/>
                </mxCell>
                <mxCell id="9" value="findById()&#10;getInstance()&#10;setAside(OrderItem)" style="text;strokeColor=none;fillColor=none;align=left;verticalAlign=top;spacingLeft=4;spacingRight=4;overflow=hidden;rotatable=0;points=[[0,0.5],[1,0.5]];portConstraint=eastwest;" vertex="1" parent="6">
                    <mxGeometry y="34" width="160" height="56" as="geometry"/>
                </mxCell>
                <mxCell id="10" value="OrderDao" style="swimlane;fontStyle=1;align=center;verticalAlign=top;childLayout=stackLayout;horizontal=1;startSize=26;horizontalStack=0;resizeParent=1;resizeParentMax=0;resizeLast=0;collapsible=1;marginBottom=0;" vertex="1" parent="1">
                    <mxGeometry x="320" y="240" width="160" height="60" as="geometry"/>
                </mxCell>
                <mxCell id="11" value="" style="line;strokeWidth=1;fillColor=none;align=left;verticalAlign=middle;spacingTop=-1;spacingLeft=3;spacingRight=3;rotatable=0;labelPosition=right;points=[];portConstraint=eastwest;" vertex="1" parent="10">
                    <mxGeometry y="26" width="160" height="8" as="geometry"/>
                </mxCell>
                <mxCell id="12" value="createOrder(Order)" style="text;strokeColor=none;fillColor=none;align=left;verticalAlign=top;spacingLeft=4;spacingRight=4;overflow=hidden;rotatable=0;points=[[0,0.5],[1,0.5]];portConstraint=eastwest;" vertex="1" parent="10">
                    <mxGeometry y="34" width="160" height="26" as="geometry"/>
                </mxCell>
                <mxCell id="13" value="Order" style="swimlane;fontStyle=1;align=center;verticalAlign=top;childLayout=stackLayout;horizontal=1;startSize=26;horizontalStack=0;resizeParent=1;resizeParentMax=0;resizeLast=0;collapsible=1;marginBottom=0;" vertex="1" parent="1">
                    <mxGeometry x="540" y="240" width="160" height="70" as="geometry"/>
                </mxCell>
                <mxCell id="14" value="" style="line;strokeWidth=1;fillColor=none;align=left;verticalAlign=middle;spacingTop=-1;spacingLeft=3;spacingRight=3;rotatable=0;labelPosition=right;points=[];portConstraint=eastwest;" vertex="1" parent="13">
                    <mxGeometry y="26" width="160" height="8" as="geometry"/>
                </mxCell>
                <mxCell id="15" value="addItem(OrderItem)&#10;getItems()" style="text;strokeColor=none;fillColor=none;align=left;verticalAlign=top;spacingLeft=4;spacingRight=4;overflow=hidden;rotatable=0;points=[[0,0.5],[1,0.5]];portConstraint=eastwest;" vertex="1" parent="13">
                    <mxGeometry y="34" width="160" height="36" as="geometry"/>
                </mxCell>
                <mxCell id="16" value="OrderItem" style="swimlane;fontStyle=1;align=center;verticalAlign=top;childLayout=stackLayout;horizontal=1;startSize=26;horizontalStack=0;resizeParent=1;resizeParentMax=0;resizeLast=0;collapsible=1;marginBottom=0;" vertex="1" parent="1">
                    <mxGeometry x="540" y="360" width="160" height="70" as="geometry"/>
                </mxCell>
                <mxCell id="17" value="" style="line;strokeWidth=1;fillColor=none;align=left;verticalAlign=middle;spacingTop=-1;spacingLeft=3;spacingRight=3;rotatable=0;labelPosition=right;points=[];portConstraint=eastwest;" vertex="1" parent="16">
                    <mxGeometry y="26" width="160" height="8" as="geometry"/>
                </mxCell>
                <mxCell id="18" value="getItem()&#10;getAmount()" style="text;strokeColor=none;fillColor=none;align=left;verticalAlign=top;spacingLeft=4;spacingRight=4;overflow=hidden;rotatable=0;points=[[0,0.5],[1,0.5]];portConstraint=eastwest;" vertex="1" parent="16">
                    <mxGeometry y="34" width="160" height="36" as="geometry"/>
                </mxCell>
                <mxCell id="19" value="Item" style="swimlane;fontStyle=1;align=center;verticalAlign=top;childLayout=stackLayout;horizontal=1;startSize=26;horizontalStack=0;resizeParent=1;resizeParentMax=0;resizeLast=0;collapsible=1;marginBottom=0;" vertex="1" parent="1">
                    <mxGeometry x="540" y="470" width="160" height="34" as="geometry"/>
                </mxCell>
                <mxCell id="20" value="" style="line;strokeWidth=1;fillColor=none;align=left;verticalAlign=middle;spacingTop=-1;spacingLeft=3;spacingRight=3;rotatable=0;labelPosition=right;points=[];portConstraint=eastwest;" vertex="1" parent="19">
                    <mxGeometry y="26" width="160" height="8" as="geometry"/>
                </mxCell>
                <mxCell id="22" value="Use" style="endArrow=open;endSize=12;dashed=1;html=1;exitX=0.469;exitY=1.115;exitDx=0;exitDy=0;exitPerimeter=0;entryX=0.463;entryY=-0.056;entryDx=0;entryDy=0;entryPerimeter=0;" edge="1" parent="1" source="5" target="6">
                    <mxGeometry width="160" relative="1" as="geometry">
                        <mxPoint x="460" y="430" as="sourcePoint"/>
                        <mxPoint x="620" y="430" as="targetPoint"/>
                    </mxGeometry>
                </mxCell>
                <mxCell id="23" value="Use" style="endArrow=open;endSize=12;dashed=1;html=1;exitX=0.45;exitY=1.077;exitDx=0;exitDy=0;exitPerimeter=0;entryX=0.5;entryY=0;entryDx=0;entryDy=0;" edge="1" parent="1" source="5" target="10">
                    <mxGeometry width="160" relative="1" as="geometry">
                        <mxPoint x="415.03999999999996" y="192.99" as="sourcePoint"/>
                        <mxPoint x="174.07999999999993" y="244.96000000000004" as="targetPoint"/>
                    </mxGeometry>
                </mxCell>
                <mxCell id="24" value="Use" style="endArrow=open;endSize=12;dashed=1;html=1;entryX=0.5;entryY=0;entryDx=0;entryDy=0;exitX=0.469;exitY=0.962;exitDx=0;exitDy=0;exitPerimeter=0;" edge="1" parent="1" source="5" target="13">
                    <mxGeometry width="160" relative="1" as="geometry">
                        <mxPoint x="400" y="190" as="sourcePoint"/>
                        <mxPoint x="410" y="250" as="targetPoint"/>
                    </mxGeometry>
                </mxCell>
                <mxCell id="26" value="1" style="endArrow=open;html=1;endSize=12;startArrow=diamondThin;startSize=14;startFill=0;edgeStyle=orthogonalEdgeStyle;align=left;verticalAlign=bottom;exitX=1;exitY=0.5;exitDx=0;exitDy=0;entryX=1;entryY=0.5;entryDx=0;entryDy=0;" edge="1" parent="1" source="15" target="18">
                    <mxGeometry x="-1" y="3" relative="1" as="geometry">
                        <mxPoint x="460" y="430" as="sourcePoint"/>
                        <mxPoint x="620" y="430" as="targetPoint"/>
                        <Array as="points">
                            <mxPoint x="770" y="292"/>
                            <mxPoint x="770" y="412"/>
                        </Array>
                    </mxGeometry>
                </mxCell>
                <mxCell id="27" value="1" style="endArrow=open;html=1;endSize=12;startArrow=diamondThin;startSize=14;startFill=0;edgeStyle=orthogonalEdgeStyle;align=left;verticalAlign=bottom;exitX=1;exitY=0.5;exitDx=0;exitDy=0;entryX=0;entryY=0.5;entryDx=0;entryDy=0;" edge="1" parent="1" target="19">
                    <mxGeometry x="-1" y="3" relative="1" as="geometry">
                        <mxPoint x="540" y="400" as="sourcePoint"/>
                        <mxPoint x="460" y="530" as="targetPoint"/>
                        <Array as="points">
                            <mxPoint x="500" y="400"/>
                            <mxPoint x="500" y="487"/>
                        </Array>
                    </mxGeometry>
                </mxCell>
            </root>
        </mxGraphModel>
    </diagram>
</mxfile>